<?xml version="1.0" standalone="no"?><!DOCTYPE svg PUBLIC "-//W3C//DTD SVG 1.1//EN" "http://www.w3.org/Graphics/SVG/1.1/DTD/svg11.dtd"><svg t="1677962458481" class="icon" viewBox="0 0 1024 1024" version="1.1" xmlns="http://www.w3.org/2000/svg" p-id="1258" xmlns:xlink="http://www.w3.org/1999/xlink" width="200" height="200"><path d="M37.98817392 492.05797102L297.472 729.77066667 494.6587826 532.59501449l31.48800001 31.47686957-228.47443478 228.46330433L23.2626087 506.79466666z" fill="#3ba8e1" p-id="1259"></path><path d="M981.21460869 486.82666666l12.43269567 12.43269566L723.74539131 792.63536232l-244.60243479-244.59130435 31.488-31.488 213.11443479 213.11443478zM1008.5554087 484.35571014l-14.73335653 14.73224348-12.46608695-12.46608695 14.73224348-14.73335653zM37.97704348 281.50353623L297.472 519.21623188 494.64765218 322.02944928l31.488 31.488-228.47443479 228.46330434-274.40973913-285.75165218z" fill="#3ba8e1" p-id="1260"></path><path d="M981.20347826 276.26110143l12.43269565 12.43269567-269.90191303 293.38713044-244.59130436-244.60243478 31.47686956-31.47686957 213.11443479 213.11443479zM1008.55763478 273.7945971l-14.73335652 14.73335652-12.46608696-12.46608696 14.73224348-14.73446956z" fill="#3ba8e1" p-id="1261"></path></svg>