<!-- Generator: Adobe Illustrator 23.0.2, SVG Export Plug-In  -->
<svg version="1.1" xmlns="http://www.w3.org/2000/svg" xmlns:xlink="http://www.w3.org/1999/xlink" x="0px" y="0px" width="360.7px"
	 height="264.69px" viewBox="0 0 360.7 264.69" style="enable-background:new 0 0 360.7 264.69;" xml:space="preserve">
<style type="text/css">
	.st0{fill:#1C3F8F;}
	.st1{fill:url(#_x34__2_);}
	.st2{fill:none;stroke:#F2F2F2;stroke-miterlimit:10;}
	.st3{fill:none;stroke:#00A0DA;stroke-miterlimit:10;}
	.st4{fill:none;stroke:#D0D72F;stroke-miterlimit:10;}
	.st5{fill:url(#_x32_shodow-u_2_);}
	.st6{fill:url(#_x32_shadow-d_2_);}
	.st7{fill:#0566AB;}
	.st8{fill:none;}
	.st9{fill:#C0CC98;}
	.st10{fill:#67BE91;}
	.st11{fill:#CFDB00;}
	.st12{fill:#0467AC;}
	.st13{fill:#95A766;}
	.st14{fill:#71A370;}
	.st15{fill:#00A0DA;}
	.st16{fill:#D6E9C2;}
	.st17{fill:none;stroke:#D0D72F;stroke-width:0.4;stroke-miterlimit:10;}
	.st18{fill:url(#_x34__3_);}
	.st19{fill:url(#_x32_shodow-u_3_);}
	.st20{fill:url(#_x32_shadow-d_3_);}
</style>
<defs>
</defs>
<polygon id="_x32__1_" class="st0" points="152.77,0 207.33,0 130.59,264.64 75.99,264.64 "/>
<linearGradient id="_x34__2_" gradientUnits="userSpaceOnUse" x1="364.9695" y1="18.8114" x2="433.7391" y2="201.6639" gradientTransform="matrix(1 0 0 -1 -100.9449 233.6378)">
	<stop  offset="0" style="stop-color:#173D87"/>
	<stop  offset="0.1986" style="stop-color:#5A3D79"/>
	<stop  offset="0.7559" style="stop-color:#BD3446"/>
	<stop  offset="1" style="stop-color:#D82C2F"/>
</linearGradient>
<polygon id="_x34__1_" class="st1" points="306.15,0 360.7,0 283.96,264.64 229.36,264.64 229.36,264.64 "/>
<g id="circuit_x5F_澶嶅埗">
	<g id="one_x5F_line_x5F_澶嶅埗">
		<circle id="yuan_9_" class="st2" cx="120.19" cy="136.89" r="1.75"/>
		<circle id="yuan_8_" class="st2" cx="108.69" cy="175.89" r="1.75"/>
		<line id="line_5_" class="st2" x1="109.36" y1="174.23" x2="119.73" y2="138.05"/>
		<circle id="yuan_7_" class="st2" cx="128.19" cy="210.89" r="1.75"/>
		<circle id="yuan_6_" class="st2" cx="116.69" cy="249.89" r="1.75"/>
		<line id="line_4_" class="st2" x1="117.36" y1="248.23" x2="127.73" y2="212.05"/>
	</g>
	<g id="two_x5F_line_x5F_澶嶅埗">
		<line id="line_3_" class="st3" x1="109.44" y1="216.14" x2="157.44" y2="44.14"/>
		<circle id="yuan_5_" class="st4" cx="157.89" cy="42.89" r="1.75"/>
		<path class="st2" d="M122.44,168.14"/>
		<polyline class="st3" points="114.94,224.64 126.44,182.23 121.22,173.14 		"/>
	</g>
</g>
<linearGradient id="_x32_shodow-u_2_" gradientUnits="userSpaceOnUse" x1="231.2412" y1="70.3471" x2="131.6857" y2="139.236">
	<stop  offset="0" style="stop-color:#211D1E"/>
	<stop  offset="0.0527" style="stop-color:#211D1E;stop-opacity:0.9104"/>
	<stop  offset="0.5882" style="stop-color:#211D1E;stop-opacity:0"/>
</linearGradient>
<polygon id="_x32_shodow-u_1_" class="st5" points="152.77,0 207.33,0 130.59,264.64 75.99,264.64 "/>
<linearGradient id="_x32_shadow-d_2_" gradientUnits="userSpaceOnUse" x1="129.0459" y1="17.6934" x2="235.9889" y2="96.4316" gradientTransform="matrix(1 0 0 -1 -100.9449 233.6378)">
	<stop  offset="0" style="stop-color:#211D1E"/>
	<stop  offset="0.0896" style="stop-color:#211D1E;stop-opacity:0.9104"/>
	<stop  offset="1" style="stop-color:#211D1E;stop-opacity:0"/>
</linearGradient>
<polygon id="_x32_shadow-d_1_" class="st6" points="152.77,0 207.33,0 130.59,264.64 75.99,264.64 "/>
<polygon id="_x33__2_" class="st7" points="207.13,0 152.52,0 229.31,264.64 283.91,264.64 "/>
<g id="change-1_x5F_澶嶅埗">
	<polygon class="st8" points="8.84,33.92 8.28,33.93 23.81,86.88 24.21,86.88 	"/>
	<polygon class="st8" points="23.81,86.88 60.71,212.68 24.21,86.88 	"/>
	<polygon class="st8" points="1.58,8.89 0.94,8.9 8.28,33.93 8.84,33.92 	"/>
	<polygon class="st9" points="30.26,8.6 15.89,8.75 23.23,33.77 37.6,33.63 	"/>
	<polygon class="st10" points="43.23,33.77 58.76,86.73 73.13,86.58 57.6,33.63 	"/>
	<polygon class="st11" points="26.23,33.77 41.76,86.73 56.13,86.58 40.6,33.63 	"/>
	<polygon class="st12" points="105.36,264.64 130.39,264.64 78.65,86.32 53.13,86.58 	"/>
	<polygon class="st12" points="75.79,264.64 75.95,264.64 60.71,212.68 	"/>
	<polygon class="st13" points="37.6,33.63 63.28,33.36 56.02,8.33 30.26,8.6 	"/>
	<polygon class="st14" points="8.84,33.92 24.21,86.88 38.76,86.73 23.23,33.77 	"/>
	<polygon class="st12" points="24.21,86.88 60.71,212.68 75.95,264.64 90.95,264.64 38.76,86.73 	"/>
	<polygon class="st15" points="53.13,86.58 38.76,86.73 90.95,264.64 105.36,264.64 	"/>
	<polygon class="st9" points="14.32,0 0,0 2.58,8.89 16.89,8.75 	"/>
	<polygon class="st16" points="38.26,8.6 35.74,0 21.32,0 23.89,8.75 	"/>
</g>
<line class="st17" x1="44.94" y1="86.64" x2="97.94" y2="264.64"/>
</svg>
