<!-- Generator: Adobe Illustrator 23.0.2, SVG Export Plug-In  -->
<svg version="1.1" xmlns="http://www.w3.org/2000/svg" xmlns:xlink="http://www.w3.org/1999/xlink" x="0px" y="0px"
	 width="367.94px" height="264.64px" viewBox="0 0 367.94 264.64" style="enable-background:new 0 0 367.94 264.64;"
	 xml:space="preserve">
<style type="text/css">
	.st0{fill:#1C3F8F;}
	.st1{fill:url(#_x34__2_);}
	.st2{fill:url(#_x32_shodow-u_2_);}
	.st3{fill:url(#_x32_shadow-d_2_);}
	.st4{fill:#0566AB;}
	.st5{fill:#133587;stroke:#B9CE3F;stroke-width:10;stroke-miterlimit:10;}
	.st6{fill:none;}
	.st7{fill:#C0CC98;}
	.st8{fill:#67BE91;}
	.st9{fill:#CFDB00;}
	.st10{fill:#0467AC;}
	.st11{fill:#95A766;}
	.st12{fill:#71A370;}
	.st13{fill:#00A0DA;}
	.st14{fill:#D6E9C2;}
	.st15{fill:url(#_x34__3_);}
	.st16{fill:url(#_x32_shodow-u_3_);}
	.st17{fill:url(#_x32_shadow-d_3_);}
</style>
<defs>
</defs>
<polygon id="_x32__1_" class="st0" points="152.77,0 207.33,0 130.59,264.64 75.99,264.64 "/>
<linearGradient id="_x34__2_" gradientUnits="userSpaceOnUse" x1="364.9695" y1="18.8114" x2="433.7391" y2="201.6639" gradientTransform="matrix(1 0 0 -1 -100.9449 233.6378)">
	<stop  offset="0" style="stop-color:#173D87"/>
	<stop  offset="0.1986" style="stop-color:#5A3D79"/>
	<stop  offset="0.7559" style="stop-color:#BD3446"/>
	<stop  offset="1" style="stop-color:#D82C2F"/>
</linearGradient>
<polygon id="_x34__1_" class="st1" points="306.15,0 360.7,0 283.96,264.64 229.36,264.64 229.36,264.64 "/>
<linearGradient id="_x32_shodow-u_2_" gradientUnits="userSpaceOnUse" x1="231.2412" y1="70.3471" x2="131.6857" y2="139.236">
	<stop  offset="0" style="stop-color:#211D1E"/>
	<stop  offset="0.0527" style="stop-color:#211D1E;stop-opacity:0.9104"/>
	<stop  offset="0.5882" style="stop-color:#211D1E;stop-opacity:0"/>
</linearGradient>
<polygon id="_x32_shodow-u_1_" class="st2" points="152.77,0 207.33,0 130.59,264.64 75.99,264.64 "/>
<linearGradient id="_x32_shadow-d_2_" gradientUnits="userSpaceOnUse" x1="129.0459" y1="17.6934" x2="235.9889" y2="96.4316" gradientTransform="matrix(1 0 0 -1 -100.9449 233.6378)">
	<stop  offset="0" style="stop-color:#211D1E"/>
	<stop  offset="0.0896" style="stop-color:#211D1E;stop-opacity:0.9104"/>
	<stop  offset="1" style="stop-color:#211D1E;stop-opacity:0"/>
</linearGradient>
<polygon id="_x32_shadow-d_1_" class="st3" points="152.77,0 207.33,0 130.59,264.64 75.99,264.64 "/>
<polygon id="_x33__2_" class="st4" points="207.13,0 152.52,0 229.31,264.64 283.91,264.64 "/>
<path class="st5" d="M367.94,23.75"/>
<polygon class="st6" points="8.84,33.92 8.28,33.93 23.81,86.88 24.21,86.88 "/>
<polygon class="st6" points="23.81,86.88 60.71,212.68 24.21,86.88 "/>
<polygon class="st6" points="1.58,8.89 0.94,8.9 8.28,33.93 8.84,33.92 "/>
<polygon class="st7" points="30.26,8.6 15.89,8.75 23.23,33.77 37.6,33.63 "/>
<polygon class="st8" points="43.23,33.77 58.76,86.73 73.13,86.58 57.6,33.63 "/>
<polygon class="st9" points="26.23,33.77 41.76,86.73 56.13,86.58 40.6,33.63 "/>
<polygon class="st10" points="105.36,264.64 130.39,264.64 78.65,86.32 53.13,86.58 "/>
<polygon class="st10" points="75.79,264.64 75.95,264.64 60.71,212.68 "/>
<polygon class="st11" points="37.6,33.63 63.28,33.36 56.02,8.33 30.26,8.6 "/>
<polygon class="st12" points="8.84,33.92 24.21,86.88 38.76,86.73 23.23,33.77 "/>
<polygon class="st10" points="24.21,86.88 60.71,212.68 75.95,264.64 90.95,264.64 38.76,86.73 "/>
<polygon class="st13" points="53.13,86.58 38.76,86.73 90.95,264.64 105.36,264.64 "/>
<polygon class="st7" points="14.32,0 0,0 2.58,8.89 16.89,8.75 "/>
<polygon class="st14" points="38.26,8.6 35.74,0 21.32,0 23.89,8.75 "/>
</svg>
